<svg xmlns="http://www.w3.org/2000/svg" height="127.332" width="257.365"><path d="M153.045 46.518c-6.02 2.882-11.032 5.17-15.769 7.2l-1.274.544c-5.012 2.142-10.2 4.357-14.564 7.216l-.578.376c-2.088 1.353-4.948 3.207-5.342 5.212a3.056 3.056 0 00.539 2.226 10.039 10.039 0 018.044 2.52c3.238 3.029 3.636 7.212 3.985 10.9.084.877.166 1.749.285 2.6a23.463 23.463 0 01.129 2.993c.008 1.995.018 4.727 1 5.262 1.769.96 6.617-2.464 8.949-4.11.764-.54 1.44-1.016 1.975-1.351a878.796 878.796 0 0014.187-9.082v-.034c1.878-15.892 2.074-26.791 1.317-33.773-.971.428-1.94.853-2.883 1.301z" fill="#fdbe2a"/><path d="M125.901 85.665c-.124-.887-.21-1.8-.3-2.709-.338-3.566-.658-6.933-3.206-9.317-3.7-3.465-9.41-1.619-13.547.537C99.599 78.997 95.83 88.06 92.76 96.931c-.306.885-.606 1.777-.907 2.67a86.741 86.741 0 01-4.2 10.829 17.531 17.531 0 01-1.593 2.713c1.756 5.353 5.088 9.229 9.458 10.923 10.141 3.932 22.954-4.668 28.57-19.16a38.364 38.364 0 002.538-11.163 15.839 15.839 0 01-.627-5.42 21.779 21.779 0 00-.098-2.658zm-9.349 16.318c-2.61 6.735-8.152 11.139-13.374 11.139a8.77 8.77 0 01-3.183-.588c-5.977-2.316-8.276-10.819-5.124-18.953a19.1 19.1 0 017.035-9.1c3.168-2.086 6.549-2.6 9.521-1.449s5.124 3.81 6.06 7.486a19.112 19.112 0 01-.935 11.465z" fill="#555556"/><path d="M172.903 43.461a54.035 54.035 0 00-6.606 2.839 24.786 24.786 0 01-3.1 1.426c-.174.185-.255.375-.23.432.172.38 1.092.624 4.524-.409.289-.087.542-.162.744-.216.373-.1.86-.208 1.419-.334 1.987-.449 7.266-1.639 7.521-3.28.133-.852 0-1.216-.094-1.29-.612-.499-3.297.502-4.178.832z" fill="#e6e7e8"/><path d="M196.444 51.16c.729-4-.849-7.763-3.453-8.42a39.117 39.117 0 00-1.173 6.337c-.434 3.358-.853 6.525-2.067 8.653.091.025.177.065.269.082 2.747.494 5.674-2.548 6.424-6.652zM110.524 85.356a6.385 6.385 0 00-2.326-.428 9.039 9.039 0 00-4.923 1.635 16.613 16.613 0 00-6.082 7.919c-2.654 6.853-.994 13.907 3.7 15.727s10.677-2.276 13.331-9.127a16.611 16.611 0 00.843-9.949c-.728-2.874-2.343-4.925-4.543-5.777z" fill="#fff"/><path d="M202.624 44.963a9.949 9.949 0 00.016-2.442c-.39-2.382-1.94-7.384-3.125-8.244a1.571 1.571 0 00-1.447-.383c-1.721.508-3.294 4.171-4.2 6.481 3.754 1.134 5.99 5.992 5.034 11.233-.927 5.065-4.516 8.751-8.291 8.751a5.657 5.657 0 01-1.034-.094 5.857 5.857 0 01-1.535-.535 31.019 31.019 0 01-5.257 3.392 9.074 9.074 0 005.6 3.662c6.3 1.159 12.785-5.335 14.451-14.457a23.955 23.955 0 00.348-3.316 1.24 1.24 0 01-.516-.772 11.359 11.359 0 01-.044-3.276z" fill="#555556"/><path d="M176.232 37.518c-.612.269-1.2.53-1.763.746-2.44.948-4.972 1.85-7.422 2.722-2.9 1.034-5.858 2.1-8.752 3.262.869 6.762.8 17.191-.975 33 7.271-4.8 13.883-9.36 20.135-13.883a22.1 22.1 0 011.732-1.1 1.448 1.448 0 01.031-.176c.029-.289.062-.66.068-.749.023-.27.023-.55.024-.831 0-.394.005-.789.044-1.17.2-1.948 1.125-10.555 1.486-12.909 1.117-7.274.56-9.928.2-10.452a15.147 15.147 0 00-4.808 1.54zm3.406 6.782c-.516 3.316-5.885 4.527-9.437 5.328-.522.118-.979.221-1.328.313-.182.048-.406.116-.664.193a15.6 15.6 0 01-4.258.832 3.233 3.233 0 01-3.258-1.788 3.021 3.021 0 011.128-3.566 1.265 1.265 0 01.565-.247 21.383 21.383 0 002.732-1.266 56.025 56.025 0 016.871-2.961c2.113-.79 4.953-1.846 6.667-.444.909.745 1.241 1.958.982 3.609z" fill="#fdbe2a"/><path d="M66.188 109.618a89.827 89.827 0 00-8.753-3.281 67.126 67.126 0 01-12.537-5.195c-2.28-1.312-5.089-2.733-8.064-4.238-11.652-5.892-26.625-13.473-30.771-24.7-2.468 2.075-3.3 5.3-2.57 10.124.6 3.99 13.561 14.489 18.44 18.442 17.655 14.047 51.821 20.651 54.731 20.172a7.056 7.056 0 002.656-2.86c.426-.81.97-1.629 1.495-2.422.136-.206.257-.4.387-.6a18.361 18.361 0 01-2.633-.642 107.951 107.951 0 01-12.381-4.8zM213.879 35.61a3.256 3.256 0 00-.577-3.137 2.394 2.394 0 00-2.394-.233 1.163 1.163 0 01-.21.025c.093.987.148 1.957.156 2.885a28.9 28.9 0 01-.509 5.672c1.722-.58 2.817-2.204 3.534-5.212z" fill="#fff"/><path d="M153.524 10.965c1.657-.317 3.27-.6 4.859-.835 3.294-.489 6.244.166 9.362.86.356.08.822.172 1.408.29 10.778 2.153 15.617 3.955 16.707 6.218a2.4 2.4 0 01-.031 2.187c-.7 1.364-2.879 2.589-5.435 3.935-.362.191-.679.356-.914.489-2.421 1.366-4.973 2.573-7.439 3.742l-2.24 1.066a64.785 64.785 0 01-10.374 3.641c-1.568.451-3.158.935-4.734 1.453 1.289 1.336 2.439 3.717 3.2 7.712 2.763-1.093 5.563-2.1 8.314-3.083 2.478-.882 4.945-1.761 7.358-2.7.526-.2 1.083-.451 1.659-.7a16.287 16.287 0 015.864-1.755 2.314 2.314 0 011.774.8c.5.567 2.013 2.291.44 12.532-.331 2.161-1.23 10.434-1.469 12.782-.031.3-.029.617-.031.93 0 .1-.008.2-.009.3 2.279-1.258 4.841-2.749 5.724-4.19 1.024-1.672 1.432-4.824 1.826-7.872a35.353 35.353 0 011.5-7.468 1.218 1.218 0 01.237-.645l.167-.427c1.2-3.107 3.021-7.8 6.114-8.715a4.03 4.03 0 013.617.757c2.354 1.707 3.913 8.578 4.122 9.859a11.967 11.967 0 01.006 3.061c-.035.407-.069.8-.082 1.192a1.255 1.255 0 01.108-.12c2.1-2.012 3.273-6.049 3.23-11.079-.057-6.472-2.106-12.853-4.983-15.518-5.367-4.97-15.168-9.066-21.931-11.065-4.986-1.474-10.929-2.906-17.155-2.349-4.65.414-9.53 1.081-14.781 2.018a6.955 6.955 0 013.608 1.958 2.792 2.792 0 01.404.739z" fill="#fdbe2a"/><path d="M153.479 31.794a121.09 121.09 0 015.262-1.632 62.871 62.871 0 009.981-3.492l2.254-1.073c2.428-1.149 4.938-2.338 7.282-3.66.252-.142.59-.32.976-.523 1.089-.574 3.981-2.1 4.383-2.874-.175-.546-1.995-2.227-14.95-4.815-.61-.122-1.092-.218-1.4-.288-3.07-.681-5.669-1.26-8.514-.84-1.581.233-3.189.516-4.845.835a47.46 47.46 0 01.219 4.777c.009 1.183.019 2.407.1 3.571a37.871 37.871 0 01-.641 9.6c-.032.156-.073.275-.107.414z" fill="#ed9b42"/><path d="M32.224 45.17c-1.186.691-1.8 1.181-1.838 1.455.017.149.479.446 1.371.876a9.646 9.646 0 01.917.484c1.731 1.1 11.351 6.444 14.406 7.637a57.833 57.833 0 007.066 2.173c2.238.557 4.221-.2 6.516-1.074.532-.2 1.071-.407 1.622-.6 4.232-1.481 22.085-6.8 26.866-7.951 2.746-.66 11-2.976 24.539-6.883l.433-.125c2.737-.789 5.6-1.4 8.37-1.989l2.461-.529c.443-.1.962-.185 1.517-.277 1.44-.239 3.411-.566 4.223-1.272.277-.239.253-.341.243-.39-.55-2.431-12.309-6.946-20.228-9.139-2.976-.823-6.1-1.4-9.118-1.966-1.846-.343-3.69-.686-5.515-1.083a31.019 31.019 0 00-4.968-.61c-.688-.036-2.893-.014-4.317.081a1.2 1.2 0 01-.338-.024 1.647 1.647 0 00-.323-.03 7.436 7.436 0 00-1.945.426c-.329.1-.649.2-.951.275-2.815.713-48.622 19.069-50.53 20.248-.136.085-.3.181-.479.287z" fill="#fdbe2a"/><path d="M127.043 27.588c9.05 2.561 17.607 4.983 21.532 4.527.491-.056.916-.081 1.288-.1a4.181 4.181 0 00.962-.109 2.612 2.612 0 00.31-1 35.28 35.28 0 00.6-8.949c-.088-1.243-.1-2.506-.109-3.727a41.175 41.175 0 00-.229-4.862c-.019-.145-.03-.3-.043-.457a1.155 1.155 0 01-.1-.232 1.221 1.221 0 01.018-.539.951.951 0 00-.116-.379c-.615-.78-2.979-1.288-4.248-1.561a39.847 39.847 0 01-.861-.191c-5.253-1.27-10.747-2.458-17.81-3.853-1.423-.281-2.839-.593-4.256-.9s-2.836-.624-4.262-.905c-3.621-.713-15.985-2.5-18.6-1.852-.794.2-1.354 1.019-2 1.97-.222.324-.444.648-.679.956-.811 1.063-1.568 2.17-2.325 3.275-1.049 1.531-2.132 3.114-3.357 4.581a59.415 59.415 0 00-4.806 7.412 35.987 35.987 0 013.721-.181c10.335-.005 23.504 3.72 35.37 7.076z" fill="#fff8e9"/><path d="M60.012 89.504a4.49 4.49 0 003.886-1.686 10.834 10.834 0 002.594-5.73c.683-4.455-1.128-8.586-3.957-9.02a3.235 3.235 0 00-.491-.038c-2.673 0-5.343 3.259-5.988 7.455a10.831 10.831 0 00.755 6.245 4.5 4.5 0 003.201 2.774zM7.181 58.718a3.976 3.976 0 003.423-1.495 9.709 9.709 0 002.324-5.137c.611-3.979-.988-7.666-3.492-8.051a2.873 2.873 0 00-.433-.032 4.211 4.211 0 00-2.99 1.527 10.474 10.474 0 00-1.648 10.735 3.965 3.965 0 002.816 2.453z" fill="#fff"/><path d="M15.392 52.462a12.214 12.214 0 01-2.965 6.461 6.686 6.686 0 01-4.509 2.286 1.232 1.232 0 01.056.756c-3.93 15.561 15.672 25.474 29.985 32.713 3.006 1.521 5.845 2.957 8.183 4.3a64.328 64.328 0 0012.086 4.991 91.649 91.649 0 018.994 3.375 105.221 105.221 0 0012.085 4.693c3.877 1.2 4.274 1.025 6.117-2.712a85.2 85.2 0 004.069-10.521c.3-.9.6-1.8.913-2.691 3.092-8.936 7.233-18.908 17.292-24.151a26.05 26.05 0 015.773-2.233 5.183 5.183 0 01-.4-3.139c.6-3.044 3.833-5.141 6.433-6.825l.568-.37c4.552-2.98 9.837-5.239 14.948-7.423l1.271-.544c4.707-2.018 9.687-4.293 15.676-7.16a85.3 85.3 0 013.614-1.616c-.8-4.782-2.151-7.131-3.684-7.576a1.178 1.178 0 01-.286-.15 1.229 1.229 0 01-.851-.492c-.242.03-.494.053-.762.067-.33.018-.706.038-1.138.088a11.569 11.569 0 01-1.32.069c-4.653 0-12.369-2.183-21.177-4.674-1.089-.308-2.206-.623-3.333-.939 9.27 3.812 10.245 6.7 10.336 7.107a2.8 2.8 0 01-1.041 2.824c-1.343 1.166-3.524 1.529-5.448 1.848-.508.084-.985.163-1.392.252l-2.475.534c-2.728.58-5.548 1.181-8.2 1.945l-.433.125c-13.572 3.918-21.865 6.242-24.647 6.911-4.738 1.138-22.43 6.413-26.626 7.881-.529.185-1.047.382-1.557.577a16.392 16.392 0 01-5.849 1.428 8.929 8.929 0 01-2.155-.264 60.527 60.527 0 01-7.374-2.271 164.364 164.364 0 01-14.836-7.856 7.229 7.229 0 00-.661-.341c-1.031-.5-2.59-1.249-2.768-2.854-.217-1.966 1.834-3.163 3.06-3.879l.411-.244c2.062-1.294 29.47-12.22 43.357-17.6-.734.161-1.481.318-2.206.479-2.58.572-5.164 1.145-7.782 1.656-2.1.408-4.237.67-6.308.924a55.5 55.5 0 00-9.357 1.684 644.42 644.42 0 00-9.045 2.831c-6.863 2.184-13.961 4.443-21.048 6.1l-1.585.361a40.286 40.286 0 00-7.858 2.335c.09.009.179.009.269.023 3.974.618 6.425 5.403 5.58 10.901zm38.2 27.645c.918-5.99 5.011-10.168 9.322-9.5s6.962 5.872 6.042 11.863a13.328 13.328 0 01-3.232 7.048 7.167 7.167 0 01-5.2 2.517 5.948 5.948 0 01-.89-.068 6.885 6.885 0 01-5.071-4.163 13.328 13.328 0 01-.971-7.697zM21.547 60.512a108.867 108.867 0 0111.938 7.034c1.91 1.239 3.885 2.521 5.869 3.716.34.2.718.425 1.12.66 3.112 1.814 7.374 4.3 8.4 7.558a13.528 13.528 0 01.507 5.279 50.077 50.077 0 00-.056 1.6v.433c-.016 1.825-.033 3.893-1.39 4.978a2.812 2.812 0 01-1.8.6 4.1 4.1 0 01-.878-.1 11.912 11.912 0 01-3.315-1.47l-.479-.274c-10.6-5.959-28.488-16.493-29.141-20.094-.456-2.509-1.133-7.122-.551-9.826a2.455 2.455 0 011.346-1.721c2.247-1.104 6.644.771 8.43 1.627z" fill="#fdbe2a"/><path d="M14.207 61.128c-.354 1.643-.143 4.953.565 8.856.667 1.889 12.669 9.8 27.91 18.365l.5.286a9.936 9.936 0 002.6 1.2.891.891 0 00.593-.007c.43-.345.446-2.106.453-3.052l.005-.448c.009-.61.034-1.161.058-1.68a11.2 11.2 0 00-.394-4.414c-.737-2.34-4.673-4.635-7.278-6.153-.413-.241-.8-.468-1.15-.678-2.021-1.217-4.014-2.51-5.941-3.76a106.649 106.649 0 00-11.66-6.878c-3.174-1.528-5.762-1.977-6.261-1.637z" fill="#fff"/><g fill="none" stroke="#3e4147" stroke-linecap="round" stroke-linejoin="round" stroke-width="2" transform="translate(-1260.376 -1579.482)"><path d="M1346.706 1600.513c-.4.07-2.6 1.087-3 1.154-6.358 1.061-12.49 2.666-18.825 3.9-5.24 1.021-10.692 1.1-15.786 2.639-9.973 3.013-19.917 6.548-30.017 8.911-5.775 1.351-12.745 2.414-15.708 8.235-2.28 4.481-1.174 13.327 3.77 15.788-5.033 19.925 25.206 30.6 38.754 38.4 6.882 3.962 14.156 5.218 21.185 8.42a106.5 106.5 0 0012.233 4.749c4.557 1.415 5.521.872 7.6-3.351a113.605 113.605 0 005.043-13.356c3.215-9.294 7.214-18.514 16.689-23.453 4.623-2.409 10.8-4.25 14.975-.341 3.6 3.368 3.271 8.342 3.887 12.764.383 2.744-.52 7.929 1.764 9.177 3.024 1.653 9.471-3.8 12.185-5.5 12.617-7.916 25.045-16.073 37.1-24.795 2.673-1.934 8.674-4.283 10.4-7.1 2.134-3.485 1.757-11.433 3.491-15.752 1.238-3.086 3.941-11.328 8.171-8.26 1.745 1.265 3.3 7.063 3.625 9.052.315 1.927-.357 3.745.021 5.681a1.907 1.907 0 002.1-.851c5.92-5.679 4.027-23.043-1.77-28.411-5.453-5.05-15.4-9.27-22.425-11.346-5.888-1.74-11.619-2.929-17.618-2.4a184.863 184.863 0 00-20.646 3.134"/><path d="M1388.262 1673.228a39.722 39.722 0 01-2.627 11.61c-5.874 15.159-19.387 24.055-30.183 19.872-5.084-1.97-8.659-6.49-10.4-12.3"/><ellipse cx="14.574" cy="10.379" rx="14.574" ry="10.379" transform="rotate(-68.819 1907.11 -142.746)"/><path d="M1464.848 1627.516a25.1 25.1 0 01-.412 4.517c-1.793 9.815-8.912 16.736-15.9 15.459a10.79 10.79 0 01-7.184-5.318"/><path d="M1452.445 1620.85a4.536 4.536 0 01.941.074c3.461.632 5.547 5.083 4.66 9.942s-4.412 8.287-7.873 7.655a4.733 4.733 0 01-1.942-.842"/><ellipse cx="9.561" cy="6.526" rx="9.561" ry="6.526" transform="rotate(-81.271 1629.415 69.186)"/><ellipse cx="8.674" cy="5.92" rx="8.674" ry="5.92" transform="rotate(-81.271 1585.414 84.27)"/><path d="M1273.363 1640.347c-.511 2.378.075 6.679.558 9.341.64 3.529 26.91 18.322 28.526 19.231a13.229 13.229 0 003.447 1.612c2.689.582 2.529-2.479 2.561-4.708.036-2.548.376-4.041-.394-6.487-1.007-3.2-6.212-5.86-8.974-7.524-5.932-3.574-11.431-7.679-17.7-10.693-2.099-1.007-7.512-3.15-8.024-.772zM1347.081 1602.226c-1.191-.249-2.617.389-3.779.683-2.415.611-48.688 19.02-50.886 20.4-.887.557-3.044 1.577-2.9 2.929.137 1.228 2.01 1.741 2.859 2.281a165.446 165.446 0 0014.621 7.746 59.338 59.338 0 007.22 2.222c3.187.791 5.822-.649 8.85-1.708 4.169-1.458 21.971-6.769 26.745-7.916 4.3-1.034 20.947-5.844 25.027-7.021 3.5-1.008 7.195-1.717 10.751-2.5 1.791-.394 4.878-.6 6.292-1.825 4.871-4.225-17.987-10.984-20.471-11.672-4.822-1.335-9.828-2.007-14.7-3.067a32.551 32.551 0 00-5.168-.636c-.779-.042-3.066-.009-4.461.084zM1266.155 1650.3c-3.7 2.681-4.231 6.993-3.519 11.7.553 3.658 8.377 10.708 18.888 19.224 18.6 14.8 53.97 21.187 55.863 20.4a8.045 8.045 0 003.412-3.472c.852-1.62 2.269-3.373 2.991-4.9"/><path d="M1346.077 1601.765c17.814-3.56 52.78 12.249 63.018 11.071 2.371-.273 3.156.277 3.64-2.211a36.611 36.611 0 00.622-9.274c-.2-2.862.02-5.83-.344-8.661a4.493 4.493 0 00-.5-2.22c-1.064-1.347-4.311-1.832-5.794-2.191-5.966-1.442-11.848-2.676-17.862-3.864-2.849-.562-5.669-1.249-8.519-1.81-2.757-.543-16.02-2.619-19.146-1.838-1.606.4-2.361 2.055-3.371 3.379-1.95 2.556-3.592 5.351-5.648 7.813a65.184 65.184 0 00-6.1 9.806M1375.56 1649.743c-3.153-4.527 2.193-7.608 5.572-9.82 4.844-3.171 10.712-5.584 16.028-7.864 5.289-2.268 10.53-4.695 15.724-7.181 6.866-3.286 14.425-5.541 21.51-8.291 2.133-.827 4.763-2.32 7.1-2.375 2.716-.063 1.289 9.7.953 11.892-.347 2.267-1.265 10.747-1.477 12.846-.065.646-.013 1.339-.065 1.975-.016.2-.154 1.711-.122 1.022"/><path d="M1422.963 1626.081a1.812 1.812 0 00-.758 2.07c.951 2.11 5.248.461 6.725.07 2.357-.625 9.395-1.7 9.852-4.629.672-4.306-3.611-2.685-5.982-1.8a54.6 54.6 0 00-6.716 2.892 18.91 18.91 0 01-3.121 1.397zM1412.622 1613.364c9.505 2.758 3.362 46.592 3.51 46.14M1412.137 1613.187c5.711-2.213 11.831-3.181 17.5-5.911 3.208-1.545 6.505-3.021 9.609-4.771 1.337-.754 5.142-2.532 5.853-3.91 1.818-3.522-14.46-6.286-17.191-6.893-3.044-.677-5.875-1.313-8.966-.857-2.053.3-4.078.664-6.086 1.069M1470.889 1610.539c3.485-1.162 5.354 1.583 4.578 4.842-.825 3.466-2.363 6.2-5.9 6.419M1478.119 1608.783c3.455-2.516 6.8-3.735 9.756-6.077-1.508-2.725-3.874-5.664-2.391-8.92 1.924-4.224 6.509-3.514 9.634-1.249.6-4.126 5.717-6.369 9.61-5.66 4.173.76 9.69 5.934 4.8 9.71a6.837 6.837 0 016.872 4.787c1.252 3.846-.574 5.2-3.729 6.423a2.976 2.976 0 011.143 4.319c-1.048 1.925-2.46 1.542-4.442 1.291.165 3.691-2.66 5.661-6.348 5.136-4.531-.646-4.864-3.189-6.421-7.178-3.357 2.863-8.446.009-8.237-3.024l-7.9 5.1"/></g></svg>
