<svg fill="none" height="190" viewBox="0 0 287 190" width="287" xmlns="http://www.w3.org/2000/svg" xmlns:xlink="http://www.w3.org/1999/xlink"><clipPath id="a"><path d="m0 0h287v190h-287z"/></clipPath><g clip-path="url(#a)"><path d="m107.339 183h6.63v-1.155h-5.25v-9.345h-1.38zm9.184-8.94c.48 0 .825-.33.825-.795s-.345-.795-.825-.795c-.495 0-.825.33-.825.795s.33.795.825.795zm-.675 8.94h1.335v-7.71h-1.335zm5.713 0h1.41l2.79-7.71h-1.335l-2.16 6.36-2.16-6.36h-1.32zm8.596.18c1.635 0 2.94-.99 3.195-2.385h-1.2c-.24.795-.9 1.38-1.995 1.38-1.515 0-2.145-1.02-2.145-2.25v-.255h5.415v-1.2c0-1.875-1.095-3.36-3.315-3.36-2.205 0-3.405 1.41-3.405 3.495v1.2c0 2.1 1.41 3.375 3.45 3.375zm-2.145-4.515v-.195c0-1.335.555-2.355 2.1-2.355 1.41 0 2.055.945 2.055 2.235v.315zm10.551 4.335h6.375v-1.065h-2.49v-8.37h2.46v-1.065h-6.315v1.065h2.475v8.37h-2.505zm8.587 0h1.335v-4.545c0-1.455.885-2.175 2.07-2.175 1.29 0 1.83.825 1.83 2.04v4.68h1.35v-4.875c0-1.86-1.095-3.015-2.805-3.015-1.29 0-2.145.57-2.505 1.41v-1.23h-1.275zm11.489 0h1.065v-1.095h-.78c-.795 0-1.05-.3-1.05-1.02v-4.5h1.89v-1.095h-1.89v-2.19h-1.35v2.19h-1.26v1.095h1.26v4.53c0 1.32.63 2.085 2.115 2.085zm5.927.18c1.635 0 2.94-.99 3.195-2.385h-1.2c-.24.795-.9 1.38-1.995 1.38-1.515 0-2.145-1.02-2.145-2.25v-.255h5.415v-1.2c0-1.875-1.095-3.36-3.315-3.36-2.205 0-3.405 1.41-3.405 3.495v1.2c0 2.1 1.41 3.375 3.45 3.375zm-2.145-4.515v-.195c0-1.335.555-2.355 2.1-2.355 1.41 0 2.055.945 2.055 2.235v.315zm7.39 4.335h1.335v-3.735c0-1.845.885-2.745 2.31-2.745h.27v-1.275h-.195c-1.335 0-2.19.585-2.46 1.755v-1.71h-1.26zm7.722 0h1.41l2.79-7.71h-1.335l-2.16 6.36-2.16-6.36h-1.32zm7.807.18c1.185 0 2.205-.555 2.55-1.08v.9h1.29v-5.07c0-1.59-1.185-2.82-3.105-2.82-1.545 0-2.655.795-3.06 2.115h1.245c.285-.63.87-1.05 1.785-1.05 1.14 0 1.785.75 1.785 1.725v1.335c-.405-.42-1.2-.885-2.34-.885-1.845 0-3.075.885-3.075 2.415 0 1.425 1.125 2.415 2.925 2.415zm.3-.87c-1.11 0-1.935-.57-1.935-1.545 0-.99.795-1.545 1.995-1.545 1.095 0 2.13.615 2.13 1.515 0 .915-1.05 1.575-2.19 1.575zm5.852.69h1.35v-10.95h-1.35zm6.614.18c1.83 0 3.18-1.02 3.18-2.415 0-1.11-.675-1.695-1.86-1.98l-2.355-.57c-.525-.12-.765-.42-.765-.915 0-.78.705-1.2 1.71-1.2 1.095 0 1.71.585 1.71 1.455v.06h1.2v-.075c0-1.455-1.23-2.43-2.895-2.43-1.725 0-2.97.78-2.97 2.265 0 1.035.645 1.71 1.8 1.965l2.28.525c.585.135.9.48.9.99 0 .9-.81 1.335-1.92 1.335-1.185 0-2.025-.57-2.025-1.47v-.06h-1.215v.09c0 1.53 1.335 2.43 3.225 2.43z" fill="#191927"/><path d="m210.124 39.21c2.175 0 3.705-1.23 3.705-3.03 0-1.545-1.02-2.37-2.025-2.64.945-.45 1.59-1.26 1.59-2.415 0-1.77-1.365-2.835-3.27-2.835-1.89 0-3.255 1.065-3.255 2.835 0 1.155.645 1.965 1.59 2.415-1.005.27-2.025 1.095-2.025 2.64 0 1.8 1.53 3.03 3.69 3.03zm0-6.12c-1.155 0-1.98-.84-1.98-1.875 0-1.17.78-1.905 1.98-1.905 1.215 0 1.995.735 1.995 1.905 0 1.035-.825 1.875-1.995 1.875zm0 5.085c-1.365 0-2.385-.78-2.385-1.995 0-1.305.975-2.055 2.385-2.055 1.425 0 2.4.75 2.4 2.055 0 1.215-1.02 1.995-2.4 1.995zm5.908.825h1.335v-3.855l3.27 3.855h1.62l-3.45-3.975 3.315-3.735h-1.62l-3.135 3.615v-6.855h-1.335zm7.943 0h4.515c2.07 0 3.42-1.125 3.42-2.88 0-1.5-.975-2.295-2.115-2.55.855-.405 1.5-1.245 1.5-2.445 0-1.53-1.05-2.625-2.91-2.625h-4.41zm1.335-5.895v-3.525h2.775c1.185 0 1.845.72 1.845 1.725 0 .975-.63 1.8-1.845 1.8zm0 4.815v-3.735h3.09c1.35 0 2.145.75 2.145 1.86 0 1.185-.765 1.875-2.145 1.875z" fill="#ff5828"/><path d="m131.336 70h1.245v-2.445h1.44v-1.035h-1.44v-2.415h-1.245v2.415h-3.615l3.33-7.02h-1.245l-3.42 7.05v1.005h4.95zm4.564 0h1.335v-3.855l3.27 3.855h1.62l-3.45-3.975 3.315-3.735h-1.62l-3.135 3.615v-6.855h-1.335zm7.943 0h4.515c2.07 0 3.42-1.125 3.42-2.88 0-1.5-.975-2.295-2.115-2.55.855-.405 1.5-1.245 1.5-2.445 0-1.53-1.05-2.625-2.91-2.625h-4.41zm1.335-5.895v-3.525h2.775c1.185 0 1.845.72 1.845 1.725 0 .975-.63 1.8-1.845 1.8zm0 4.815v-3.735h3.09c1.35 0 2.145.75 2.145 1.86 0 1.185-.765 1.875-2.145 1.875z" fill="#5436da"/><path d="m116.336 99.5h1.245v-2.445h1.44v-1.035h-1.44v-2.415h-1.245v2.415h-3.615l3.33-7.02h-1.245l-3.42 7.05v1.005h4.95zm4.564 0h1.335v-3.855l3.27 3.855h1.62l-3.45-3.975 3.315-3.735h-1.62l-3.135 3.615v-6.855h-1.335zm7.943 0h4.515c2.07 0 3.42-1.125 3.42-2.88 0-1.5-.975-2.295-2.115-2.55.855-.405 1.5-1.245 1.5-2.445 0-1.53-1.05-2.625-2.91-2.625h-4.41zm1.335-5.895v-3.525h2.775c1.185 0 1.845.72 1.845 1.725 0 .975-.63 1.8-1.845 1.8zm0 4.815v-3.735h3.09c1.35 0 2.145.75 2.145 1.86 0 1.185-.765 1.875-2.145 1.875z" fill="#21b5c2"/><path d="m51.3358 129.5h1.245v-2.445h1.44v-1.035h-1.44v-2.415h-1.245v2.415h-3.615l3.33-7.02h-1.245l-3.42 7.05v1.005h4.95zm4.5642 0h1.335v-3.855l3.27 3.855h1.62l-3.45-3.975 3.315-3.735h-1.62l-3.135 3.615v-6.855h-1.335zm7.9429 0h4.515c2.07 0 3.42-1.125 3.42-2.88 0-1.5-.975-2.295-2.115-2.55.855-.405 1.5-1.245 1.5-2.445 0-1.53-1.05-2.625-2.91-2.625h-4.41zm1.335-5.895v-3.525h2.775c1.185 0 1.845.72 1.845 1.725 0 .975-.63 1.8-1.845 1.8zm0 4.815v-3.735h3.09c1.35 0 2.145.75 2.145 1.86 0 1.185-.765 1.875-2.145 1.875z" fill="#a5cfe4"/><path d="m24 164h130 130" stroke="#8e8ea0" stroke-miterlimit="16" stroke-width="1.5"/><rect fill="#8e8ea0" height="7" rx="3.5" transform="matrix(0 1 -1 0 448 -127)" width="7" x="287.5" y="160.5"/><rect fill="#8e8ea0" height="7" rx="3.5" transform="matrix(0 1 -1 0 188 133)" width="7" x="27.5" y="160.5"/><path d="m184 43.75h70" stroke="#ff5828" stroke-width="1.5"/><rect fill="#ff5828" height="7" rx="3.5" transform="matrix(0 1 -1 0 228 -147)" width="7" x="187.5" y="40.5"/><rect fill="#ff5828" height="7" rx="3.5" transform="matrix(0 1 -1 0 298 -217)" width="7" x="257.5" y="40.5"/><path d="m94 74.25h90" stroke="#5436da" stroke-width="1.5"/><rect fill="#5436da" height="7" rx="3.5" transform="matrix(0 1 -1 0 258 -117)" width="7" x="187.5" y="70.5"/><rect fill="#5436da" height="7" rx="3.5" transform="matrix(0 1 -1 0 168 -27)" width="7" x="97.5" y="70.5"/><path d="m63.9844 103.75h120.0156" stroke="#21b5c2" stroke-width="1.5"/><rect fill="#21b5c2" height="7" rx="3.5" transform="matrix(0 1 -1 0 288 -87)" width="7" x="187.5" y="100.5"/><rect fill="#21b5c2" height="7" rx="3.5" transform="matrix(0 1 -1 0 168 33)" width="7" x="67.5" y="100.5"/><path d="m23.9844 133.75h70.0156" stroke="#a5cfe4" stroke-width="1.5"/><g fill="#a5cfe4"><rect height="7" rx="3.5" transform="matrix(0 1 -1 0 228 33)" width="7" x="97.5" y="130.5"/><rect height="7" rx="3.5" transform="matrix(0 1 -1 0 158 103)" width="7" x="27.5" y="130.5"/></g></g></svg>